<?xml version="1.0" encoding="utf-8"?>
<!-- Generator: Adobe Illustrator 24.0.1, SVG Export Plug-In . SVG Version: 6.00 Build 0)  -->
<svg version="1.1" id="Layer_1" xmlns="http://www.w3.org/2000/svg" xmlns:xlink="http://www.w3.org/1999/xlink" x="0px" y="0px"
	 viewBox="0 0 206.9 46" style="enable-background:new 0 0 206.9 46;" xml:space="preserve">
<style type="text/css">
	.st0{fill:none;stroke:#00A14B;stroke-miterlimit:10;}
	.st1{fill:#00ADEE;}
	.st2{fill:#00A14B;}
	.st3{fill:#EC1C24;}
	.st4{fill:#25A9E0;}
	.st5{font-family:'Montserrat-SemiBold';}
	.st6{font-size:4.0593px;}
	.st7{enable-background:new    ;}
</style>
<g>
	<g>
		<g>
			<circle class="st0" cx="21.1" cy="23" r="21.1"/>
		</g>
		<path class="st1" d="M10.8,25.3c-0.2-0.2-0.4-0.4-0.5-0.8c-0.1-0.3-0.1-0.9-0.1-1.4l0.9-0.8l-0.1-0.2L11,22l-0.9-0.8
			c0-0.5,0-1.1,0.1-1.4c0.1-0.4,0.3-0.6,0.5-0.8s0.4-0.4,0.4-0.8c0.1-0.6,0-1.5-0.6-2.1c-0.3-0.3-0.9-0.7-1.7-0.6h0
			c-0.3,0.1-0.5,0.2-0.7,0.3c-0.3-0.2-0.7-0.3-1.1-0.3c-0.6,0-1.1,0.3-1.6,0.8c-0.4,0.5-0.7,1.3-0.6,1.8v0c0.1,0.3,0.3,0.5,0.4,0.6
			c0.2,0.1,0.4,0.3,0.5,0.6c0.3,0.6,0.4,1.3,0.3,1.9l-1.1,0.8l0.1,0.1l-0.1,0.1l1.1,0.8c0,0.6,0,1.3-0.3,1.9
			c-0.2,0.3-0.4,0.5-0.6,0.6c-0.2,0.2-0.4,0.3-0.4,0.6v0C4.8,26.8,5,27.5,5.5,28c0.4,0.5,1,0.8,1.6,0.8c0.4,0,0.8-0.1,1.1-0.3
			c0.2,0.1,0.5,0.3,0.7,0.3h0c0.1,0,0.2,0,0.3,0c0.7,0,1.1-0.3,1.4-0.6c0.6-0.6,0.7-1.5,0.6-2.1C11.1,25.8,11,25.5,10.8,25.3z
			 M6.8,23c0-0.2,0-0.3,0-0.5c0-0.1,0-0.2,0-0.3c0-0.1,0-0.2,0-0.3c0-0.1,0-0.3,0-0.5h2.8c0,0.3,0,0.6,0,0.8c0,0.2,0,0.5,0,0.8
			C9.6,23,6.8,23,6.8,23z M10.1,22.8c0-0.3,0-0.5,0-0.6l0,0c0-0.1,0-0.3,0-0.6l0.6,0.6L10.1,22.8z M8.2,16.5c0.6,0.5,1,1.2,1,1.8
			c0,0.8-0.6,0.9-1.1,1c-0.6-0.2-0.9-0.5-0.9-1C7.2,17.7,7.6,17,8.2,16.5z M5.7,18.4c-0.2-0.1-0.2-0.2-0.3-0.3
			c-0.1-0.4,0.1-0.9,0.4-1.4c0.2-0.2,0.6-0.6,1.1-0.6c0.2,0,0.4,0.1,0.7,0.2c-0.6,0.5-1.1,1.3-1.1,2c0,0.5,0.1,1.3,1.3,1.6l0,0h0
			c1.1,0,1.7-0.6,1.7-1.5c0-0.7-0.4-1.6-1.1-2.1c0.1-0.1,0.3-0.1,0.4-0.1c0.5-0.1,0.9,0.1,1.2,0.4c0.4,0.5,0.6,1.2,0.5,1.6
			c-0.1,0.2-0.2,0.4-0.3,0.6c-0.2,0.2-0.4,0.5-0.6,1c-0.1,0.3-0.1,0.9-0.2,1.5H6.8c0-0.6-0.1-1.4-0.4-2C6.2,18.7,5.9,18.5,5.7,18.4z
			 M5.5,22.2l0.8-0.5c0,0.1,0,0.1,0,0.2c0,0.1,0,0.2,0,0.3l0,0v0v0l0,0c0,0.1,0,0.2,0,0.3c0,0.1,0,0.1,0,0.2L5.5,22.2z M8.2,27.8
			c-0.6-0.5-1-1.2-1-1.7c0-0.5,0.3-0.9,0.9-1c0.5,0,1.1,0.2,1.1,1C9.2,26.6,8.8,27.4,8.2,27.8z M10.2,27.9c-0.3,0.4-0.7,0.5-1.2,0.4
			c-0.1,0-0.3-0.1-0.4-0.1c0.6-0.6,1.1-1.4,1.1-2.1c0-0.9-0.6-1.5-1.7-1.5h0l0,0c-1.2,0.4-1.3,1.2-1.3,1.6c0,0.7,0.5,1.5,1.1,2
			c-0.2,0.1-0.4,0.1-0.7,0.1c-0.6,0-0.9-0.4-1.1-0.6c-0.3-0.4-0.5-1-0.4-1.4c0-0.1,0.1-0.2,0.3-0.3c0.2-0.2,0.4-0.4,0.7-0.8
			c0.3-0.6,0.4-1.4,0.4-2h2.8c0,0.6,0.1,1.2,0.2,1.5c0.2,0.5,0.4,0.7,0.6,1c0.2,0.2,0.3,0.4,0.3,0.6C10.8,26.7,10.6,27.4,10.2,27.9z
			"/>
		<path class="st2" d="M23.2,22h-2.5l-0.6-1.4c0-0.1-0.1-0.1-0.1-0.1c-0.1,0-0.1,0-0.1,0.1l-0.7,1.5l-0.5-6.7c0-0.1-0.1-0.2-0.1-0.2
			c-0.1,0-0.1,0.1-0.2,0.1l-1.7,12.3l-0.9-10.1c0-0.1-0.1-0.2-0.1-0.2c-0.1,0-0.1,0.1-0.2,0.1l-1.1,6.3l-0.6-4
			c0-0.1-0.1-0.1-0.1-0.1s-0.1,0.1-0.1,0.1L12.9,22H1.1c-0.1,0-0.1,0.1-0.1,0.2s0.1,0.2,0.1,0.2h12c0.1,0,0.1-0.1,0.1-0.1l0.3-1.4
			l0.6,4c0,0.1,0.1,0.1,0.1,0.1c0.1,0,0.1-0.1,0.1-0.1l1.1-6l0.9,10.3c0,0.1,0.1,0.2,0.1,0.2c0.1,0,0.1-0.1,0.2-0.1l1.7-12.2
			l0.4,5.8c0,0.1,0.1,0.1,0.1,0.2c0.1,0,0.1,0,0.2-0.1l0.8-1.7l0.6,1.2c0,0.1,0.1,0.1,0.1,0.1h2.6"/>
		<g>
			<path class="st3" d="M29.6,32.8c0.4-1.9,1.6-3.5,3-4.9c1.5-1.6,3.3-3,4.6-4.7c0.6-0.9,1.2-1.8,1.4-2.9c0.2-0.8,0.3-1.5,0.1-2.3
				c-0.1-0.5-0.3-1-0.6-1.4c-0.7-0.9-2-1.3-3.1-1.3c-1.1,0.1-2.1,0.5-2.9,1.2c-0.5,0.4-0.9,0.9-1.3,1.4c-0.4,0.5-0.7,1.1-1,1.7
				c0,0,0,0-0.1,0s0,0,0-0.1c0.1-0.7,0.4-1.3,0.7-1.9c1.2-2.4,4-4,6.7-3.1c0.8,0.3,1.6,0.8,2.1,1.5c0.4,0.6,0.7,1.2,0.7,1.9
				c0.2,1.2-0.1,2.5-0.5,3.6c-0.7,1.5-1.7,2.8-2.9,3.9c-1.3,1.2-2.7,2.2-4,3.4c-0.8,0.8-1.6,1.6-2.2,2.6
				C30.1,31.9,29.8,32.3,29.6,32.8C29.7,32.8,29.6,32.8,29.6,32.8C29.6,32.8,29.6,32.8,29.6,32.8L29.6,32.8z"/>
			<path class="st3" d="M29.1,28.9c-0.9-1.6-2.5-2.5-3.8-3.7c-0.9-0.8-1.7-1.8-2.1-2.9c-0.4-0.9-0.6-2-0.4-3c0-0.2,0.1-0.4,0.1-0.6
				c0.4-1.3,1.6-2.2,2.9-2.4c0.8-0.1,1.5,0.1,2.2,0.4c0.3,0.2,0.6,0.4,0.9,0.7c0.2,0.2,0.3,0.3,0.5,0.5c0.1,0.2,0.2,0.4,0.3,0.5
				c0,0.1,0,0.1-0.1,0.1c-0.3-0.3-0.6-0.6-0.9-0.8c-0.7-0.5-1.6-0.8-2.5-0.7c-0.9,0.1-1.7,0.6-2.2,1.4c-0.2,0.3-0.4,0.7-0.4,1.1
				c-0.3,1.6,0.5,3.4,1.6,4.6c1.3,1.5,3.2,2.6,4,4.5l0,0l0,0.1c0,0,0,0.1,0.1,0.1C29.2,28.9,29.2,28.9,29.1,28.9
				C29.1,29,29.1,28.9,29.1,28.9L29.1,28.9z"/>
		</g>
	</g>
	<text transform="matrix(1 0 0 1 8.1367 36.8086)" class="st4 st5 st6">WELLNESS</text>
	<text transform="matrix(1 0 0 1 5.9268 12.9341)" class="st4 st5 st6">PHLEBOTOMY</text>
</g>
<g>
	<g>
		<g class="st7">
			<path class="st4" d="M49.3,14.6V6.2h4c0.8,0,1.5,0.1,2,0.4c0.6,0.3,1,0.6,1.3,1.1s0.5,1,0.5,1.7c0,0.6-0.2,1.2-0.5,1.7
				c-0.3,0.5-0.8,0.8-1.3,1.1c-0.6,0.2-1.3,0.4-2,0.4h-2.5l1.3-1.2v3.3H49.3z M52.2,11.7l-1.3-1.3h2.3c0.4,0,0.7-0.1,0.9-0.3
				s0.3-0.4,0.3-0.7c0-0.3-0.1-0.5-0.3-0.7s-0.5-0.3-0.9-0.3h-2.3l1.3-1.3V11.7z M54.4,14.6l-2.1-3.1h3l2.1,3.1H54.4z"/>
			<path class="st4" d="M62.7,14.8c-0.7,0-1.3-0.1-1.9-0.3c-0.6-0.2-1.1-0.5-1.5-0.9c-0.4-0.4-0.8-0.9-1-1.4
				c-0.2-0.5-0.4-1.1-0.4-1.8c0-0.6,0.1-1.2,0.4-1.8c0.2-0.5,0.6-1,1-1.4c0.4-0.4,0.9-0.7,1.5-0.9C61.4,6.1,62,6,62.7,6
				c0.7,0,1.3,0.1,1.9,0.3c0.6,0.2,1.1,0.5,1.5,0.9c0.4,0.4,0.8,0.9,1,1.4c0.2,0.5,0.4,1.1,0.4,1.8c0,0.6-0.1,1.2-0.4,1.8
				c-0.2,0.5-0.6,1-1,1.4c-0.4,0.4-0.9,0.7-1.5,0.9C64,14.7,63.4,14.8,62.7,14.8z M62.7,12.5c0.3,0,0.5,0,0.7-0.1s0.4-0.2,0.6-0.4
				c0.2-0.2,0.3-0.4,0.4-0.7c0.1-0.3,0.1-0.6,0.1-0.9s0-0.6-0.1-0.9c-0.1-0.3-0.2-0.5-0.4-0.7c-0.2-0.2-0.4-0.3-0.6-0.4
				c-0.2-0.1-0.5-0.1-0.7-0.1c-0.3,0-0.5,0-0.7,0.1c-0.2,0.1-0.4,0.2-0.6,0.4c-0.2,0.2-0.3,0.4-0.4,0.7c-0.1,0.3-0.1,0.6-0.1,0.9
				s0,0.6,0.1,0.9c0.1,0.3,0.2,0.5,0.4,0.7c0.2,0.2,0.4,0.3,0.6,0.4S62.4,12.5,62.7,12.5z"/>
			<path class="st4" d="M67.4,14.6l3.7-8.4h2.8l3.7,8.4h-2.9l-2.7-7.1H73l-2.7,7.1H67.4z M69.6,13.2l0.7-2h3.9l0.7,2H69.6z"/>
			<path class="st4" d="M78,14.6V6.2h2.3l3.4,5.5h-1.2l3.3-5.5h2.3l0,8.4h-2.6l0-4.5h0.4l-2.2,3.8h-1.2l-2.3-3.8h0.5v4.5H78z"/>
			<path class="st4" d="M89.4,14.6V6.2h2.8v8.4H89.4z"/>
			<path class="st4" d="M93.6,14.6V6.2H96l4.3,5.1h-1.1V6.2h2.8v8.4h-2.3l-4.3-5.1h1.1v5.1H93.6z"/>
			<path class="st4" d="M107.7,14.8c-0.7,0-1.3-0.1-1.9-0.3c-0.6-0.2-1.1-0.5-1.5-0.9c-0.4-0.4-0.7-0.9-1-1.4s-0.3-1.1-0.3-1.8
				c0-0.6,0.1-1.2,0.3-1.8s0.6-1,1-1.4c0.4-0.4,0.9-0.7,1.5-0.9c0.6-0.2,1.2-0.3,1.9-0.3c0.8,0,1.6,0.1,2.2,0.4
				c0.7,0.3,1.2,0.7,1.6,1.2l-1.8,1.6c-0.3-0.3-0.6-0.5-0.9-0.7c-0.3-0.2-0.6-0.2-1-0.2c-0.3,0-0.6,0-0.8,0.1
				c-0.3,0.1-0.5,0.2-0.6,0.4c-0.2,0.2-0.3,0.4-0.4,0.7s-0.1,0.5-0.1,0.9c0,0.3,0,0.6,0.1,0.9s0.2,0.5,0.4,0.7
				c0.2,0.2,0.4,0.3,0.6,0.4c0.2,0.1,0.5,0.2,0.8,0.2c0.3,0,0.6-0.1,0.9-0.2c0.3-0.1,0.6-0.3,1-0.6l1.6,1.9
				c-0.5,0.3-1.1,0.6-1.8,0.8C108.9,14.7,108.3,14.8,107.7,14.8z M108.9,13.4v-3.2h2.5v3.6L108.9,13.4z"/>
			<path class="st4" d="M116.1,14.6V6.2h4c0.8,0,1.5,0.1,2,0.4s1,0.6,1.3,1.1c0.3,0.5,0.5,1,0.5,1.7c0,0.6-0.2,1.2-0.5,1.7
				c-0.3,0.5-0.8,0.8-1.3,1.1s-1.3,0.4-2,0.4h-2.5l1.3-1.2v3.3H116.1z M119,11.7l-1.3-1.3h2.3c0.4,0,0.7-0.1,0.9-0.3
				c0.2-0.2,0.3-0.4,0.3-0.7c0-0.3-0.1-0.5-0.3-0.7c-0.2-0.2-0.5-0.3-0.9-0.3h-2.3l1.3-1.3V11.7z"/>
			<path class="st4" d="M127.8,14.6h-2.8V6.2h2.8V14.6z M130.6,11.5h-3V9.2h3V11.5z M130.4,6.2h2.8v8.4h-2.8V6.2z"/>
			<path class="st4" d="M137.3,12.5h4.2v2.1h-7V6.2h6.8v2.1h-4V12.5z M137.2,9.3h3.7v2h-3.7V9.3z"/>
			<path class="st4" d="M142.6,14.6V6.2h2.8v6.2h3.8v2.2H142.6z"/>
			<path class="st4" d="M150,14.6V6.2h4.5c1.2,0,2,0.2,2.6,0.6s0.8,0.9,0.8,1.6c0,0.4-0.1,0.8-0.4,1.1c-0.2,0.3-0.6,0.6-1,0.8
				c-0.4,0.2-1,0.3-1.7,0.3l0.2-0.6c0.7,0,1.2,0.1,1.7,0.3c0.5,0.2,0.8,0.5,1.1,0.8c0.3,0.3,0.4,0.8,0.4,1.3c0,0.7-0.3,1.3-0.9,1.7
				c-0.6,0.4-1.5,0.6-2.6,0.6H150z M152.8,12.6h1.7c0.3,0,0.5-0.1,0.7-0.2c0.2-0.1,0.2-0.3,0.2-0.5c0-0.2-0.1-0.4-0.2-0.5
				s-0.4-0.2-0.7-0.2h-1.9V9.4h1.5c0.3,0,0.6-0.1,0.7-0.2c0.1-0.1,0.2-0.3,0.2-0.5c0-0.2-0.1-0.4-0.2-0.5c-0.1-0.1-0.4-0.2-0.7-0.2
				h-1.3V12.6z"/>
			<path class="st4" d="M163.7,14.8c-0.7,0-1.3-0.1-1.9-0.3c-0.6-0.2-1.1-0.5-1.5-0.9c-0.4-0.4-0.8-0.9-1-1.4
				c-0.2-0.5-0.4-1.1-0.4-1.8c0-0.6,0.1-1.2,0.4-1.8c0.2-0.5,0.6-1,1-1.4c0.4-0.4,0.9-0.7,1.5-0.9c0.6-0.2,1.2-0.3,1.9-0.3
				c0.7,0,1.3,0.1,1.9,0.3c0.6,0.2,1.1,0.5,1.5,0.9c0.4,0.4,0.8,0.9,1,1.4s0.4,1.1,0.4,1.8c0,0.6-0.1,1.2-0.4,1.8
				c-0.2,0.5-0.6,1-1,1.4c-0.4,0.4-0.9,0.7-1.5,0.9C165,14.7,164.4,14.8,163.7,14.8z M163.7,12.5c0.3,0,0.5,0,0.7-0.1
				c0.2-0.1,0.4-0.2,0.6-0.4c0.2-0.2,0.3-0.4,0.4-0.7c0.1-0.3,0.1-0.6,0.1-0.9s0-0.6-0.1-0.9c-0.1-0.3-0.2-0.5-0.4-0.7
				c-0.2-0.2-0.4-0.3-0.6-0.4c-0.2-0.1-0.5-0.1-0.7-0.1s-0.5,0-0.7,0.1c-0.2,0.1-0.4,0.2-0.6,0.4c-0.2,0.2-0.3,0.4-0.4,0.7
				s-0.1,0.6-0.1,0.9s0,0.6,0.1,0.9c0.1,0.3,0.2,0.5,0.4,0.7c0.2,0.2,0.4,0.3,0.6,0.4C163.2,12.5,163.5,12.5,163.7,12.5z"/>
			<path class="st4" d="M171.2,14.6V8.4h-2.5V6.2h7.8v2.2H174v6.2H171.2z"/>
			<path class="st4" d="M181.5,14.8c-0.7,0-1.3-0.1-1.9-0.3c-0.6-0.2-1.1-0.5-1.5-0.9c-0.4-0.4-0.8-0.9-1-1.4
				c-0.2-0.5-0.4-1.1-0.4-1.8c0-0.6,0.1-1.2,0.4-1.8c0.2-0.5,0.6-1,1-1.4c0.4-0.4,0.9-0.7,1.5-0.9c0.6-0.2,1.2-0.3,1.9-0.3
				c0.7,0,1.3,0.1,1.9,0.3c0.6,0.2,1.1,0.5,1.5,0.9c0.4,0.4,0.8,0.9,1,1.4s0.4,1.1,0.4,1.8c0,0.6-0.1,1.2-0.4,1.8
				c-0.2,0.5-0.6,1-1,1.4c-0.4,0.4-0.9,0.7-1.5,0.9C182.8,14.7,182.2,14.8,181.5,14.8z M181.5,12.5c0.3,0,0.5,0,0.7-0.1
				c0.2-0.1,0.4-0.2,0.6-0.4c0.2-0.2,0.3-0.4,0.4-0.7c0.1-0.3,0.1-0.6,0.1-0.9s0-0.6-0.1-0.9c-0.1-0.3-0.2-0.5-0.4-0.7
				c-0.2-0.2-0.4-0.3-0.6-0.4c-0.2-0.1-0.5-0.1-0.7-0.1s-0.5,0-0.7,0.1c-0.2,0.1-0.4,0.2-0.6,0.4c-0.2,0.2-0.3,0.4-0.4,0.7
				s-0.1,0.6-0.1,0.9s0,0.6,0.1,0.9c0.1,0.3,0.2,0.5,0.4,0.7c0.2,0.2,0.4,0.3,0.6,0.4C181,12.5,181.2,12.5,181.5,12.5z"/>
			<path class="st4" d="M187.3,14.6V6.2h2.3l3.4,5.5h-1.2l3.3-5.5h2.3l0,8.4h-2.6l0-4.5h0.4l-2.2,3.8h-1.2l-2.3-3.8h0.5v4.5H187.3z"
				/>
			<path class="st4" d="M200.9,14.6v-3.7l0.6,1.7l-3.8-6.4h3l2.6,4.4h-1.7l2.6-4.4h2.7l-3.8,6.4l0.6-1.7v3.7H200.9z"/>
		</g>
		<g class="st7">
			<path class="st4" d="M52.5,38.6c-0.7,0-1.3-0.1-1.8-0.3c-0.5-0.2-0.9-0.5-1.2-0.9c-0.3-0.4-0.5-0.8-0.5-1.2
				c0-0.5,0.1-0.9,0.3-1.2c0.2-0.4,0.5-0.7,0.9-1c0.4-0.3,1-0.6,1.6-0.8c0.4-0.2,0.7-0.3,0.9-0.4c0.2-0.1,0.4-0.3,0.5-0.4
				c0.1-0.1,0.1-0.2,0.1-0.3c0-0.1,0-0.2-0.1-0.3s-0.2-0.1-0.4-0.1c-0.2,0-0.3,0-0.4,0.1c-0.1,0.1-0.1,0.2-0.1,0.3
				c0,0.1,0,0.2,0.1,0.3s0.1,0.2,0.3,0.3c0.1,0.1,0.3,0.3,0.5,0.5l4.4,3.8l-1.5,1.6l-5.1-4.4c-0.3-0.2-0.5-0.5-0.7-0.7
				c-0.2-0.2-0.3-0.5-0.4-0.7c-0.1-0.2-0.1-0.5-0.1-0.7c0-0.4,0.1-0.8,0.4-1.2s0.6-0.6,1.1-0.8c0.5-0.2,1-0.3,1.6-0.3
				c0.6,0,1,0.1,1.5,0.3s0.7,0.4,1,0.7c0.2,0.3,0.3,0.7,0.3,1.1c0,0.4-0.1,0.7-0.3,1c-0.2,0.3-0.5,0.6-0.9,0.9s-0.9,0.5-1.5,0.7
				c-0.3,0.1-0.6,0.2-0.8,0.4c-0.2,0.1-0.3,0.3-0.4,0.4c-0.1,0.1-0.1,0.3-0.1,0.5c0,0.1,0,0.2,0.1,0.4s0.2,0.2,0.4,0.3
				c0.2,0.1,0.3,0.1,0.6,0.1c0.4,0,0.8-0.1,1.2-0.3c0.4-0.2,0.7-0.6,1-1c0.3-0.4,0.5-0.9,0.6-1.5l2.2,0.6c-0.2,0.8-0.5,1.6-1,2.2
				s-1.1,1.1-1.8,1.5S53.3,38.6,52.5,38.6z"/>
			<path class="st4" d="M64.4,38.4L61.7,30h2.9l2.2,7.1h-1.5l2.3-7.1h2.6l2.1,7.1H71l2.3-7.1h2.7l-2.7,8.4h-3l-1.8-5.8h0.8l-1.8,5.8
				H64.4z"/>
			<path class="st4" d="M79.3,36.3h4.2v2.1h-7V30h6.8v2.1h-4V36.3z M79.1,33.1h3.7v2h-3.7V33.1z"/>
			<path class="st4" d="M84.6,38.4V30h2.8v6.2h3.8v2.2H84.6z"/>
			<path class="st4" d="M92,38.4V30h2.8v6.2h3.8v2.2H92z"/>
			<path class="st4" d="M99.4,38.4V30h2.3l4.3,5.1H105V30h2.8v8.4h-2.3l-4.3-5.1h1.1v5.1H99.4z"/>
			<path class="st4" d="M111.9,36.3h4.2v2.1h-7V30h6.8v2.1h-4V36.3z M111.7,33.1h3.7v2h-3.7V33.1z"/>
			<path class="st4" d="M120.3,38.6c-0.7,0-1.4-0.1-2-0.2c-0.7-0.2-1.2-0.4-1.6-0.6l0.9-2.1c0.4,0.2,0.8,0.4,1.3,0.6s1,0.2,1.4,0.2
				c0.3,0,0.5,0,0.6-0.1s0.3-0.1,0.3-0.2s0.1-0.2,0.1-0.2c0-0.2-0.1-0.3-0.3-0.4s-0.4-0.2-0.7-0.2c-0.3-0.1-0.6-0.1-0.9-0.2
				s-0.7-0.2-1-0.3c-0.3-0.1-0.6-0.3-0.9-0.4c-0.3-0.2-0.5-0.4-0.7-0.7c-0.2-0.3-0.3-0.7-0.3-1.1c0-0.5,0.1-1,0.4-1.4s0.7-0.8,1.3-1
				s1.3-0.4,2.2-0.4c0.6,0,1.1,0.1,1.7,0.2c0.6,0.1,1,0.3,1.5,0.6l-0.9,2.1c-0.4-0.2-0.8-0.4-1.2-0.5c-0.4-0.1-0.8-0.2-1.1-0.2
				c-0.3,0-0.5,0-0.6,0.1s-0.3,0.1-0.3,0.2c-0.1,0.1-0.1,0.2-0.1,0.3c0,0.1,0.1,0.3,0.3,0.3c0.2,0.1,0.4,0.2,0.7,0.2
				c0.3,0.1,0.6,0.1,0.9,0.2s0.7,0.2,1,0.3c0.3,0.1,0.6,0.3,0.9,0.4c0.3,0.2,0.5,0.4,0.7,0.7c0.2,0.3,0.3,0.7,0.3,1.1
				c0,0.5-0.1,1-0.4,1.4c-0.3,0.4-0.7,0.8-1.3,1S121.2,38.6,120.3,38.6z"/>
			<path class="st4" d="M128.2,38.6c-0.7,0-1.4-0.1-2-0.2c-0.7-0.2-1.2-0.4-1.6-0.6l0.9-2.1c0.4,0.2,0.8,0.4,1.3,0.6s1,0.2,1.4,0.2
				c0.3,0,0.5,0,0.6-0.1s0.3-0.1,0.3-0.2s0.1-0.2,0.1-0.2c0-0.2-0.1-0.3-0.3-0.4s-0.4-0.2-0.7-0.2c-0.3-0.1-0.6-0.1-0.9-0.2
				s-0.7-0.2-1-0.3c-0.3-0.1-0.6-0.3-0.9-0.4c-0.3-0.2-0.5-0.4-0.7-0.7c-0.2-0.3-0.3-0.7-0.3-1.1c0-0.5,0.1-1,0.4-1.4s0.7-0.8,1.3-1
				s1.3-0.4,2.2-0.4c0.6,0,1.1,0.1,1.7,0.2c0.6,0.1,1,0.3,1.5,0.6l-0.9,2.1c-0.4-0.2-0.8-0.4-1.2-0.5c-0.4-0.1-0.8-0.2-1.1-0.2
				c-0.3,0-0.5,0-0.6,0.1s-0.3,0.1-0.3,0.2c-0.1,0.1-0.1,0.2-0.1,0.3c0,0.1,0.1,0.3,0.3,0.3c0.2,0.1,0.4,0.2,0.7,0.2
				c0.3,0.1,0.6,0.1,0.9,0.2s0.7,0.2,1,0.3c0.3,0.1,0.6,0.3,0.9,0.4c0.3,0.2,0.5,0.4,0.7,0.7c0.2,0.3,0.3,0.7,0.3,1.1
				c0,0.5-0.1,1-0.4,1.4c-0.3,0.4-0.7,0.8-1.3,1S129,38.6,128.2,38.6z"/>
			<path class="st4" d="M140.9,38.6c-0.7,0-1.3-0.1-1.9-0.3c-0.6-0.2-1.1-0.5-1.5-0.9s-0.7-0.9-1-1.4c-0.2-0.5-0.3-1.1-0.3-1.8
				s0.1-1.2,0.3-1.8c0.2-0.5,0.6-1,1-1.4s0.9-0.7,1.5-0.9c0.6-0.2,1.2-0.3,1.9-0.3c0.8,0,1.6,0.1,2.2,0.4c0.6,0.3,1.2,0.7,1.6,1.2
				l-1.8,1.6c-0.2-0.3-0.5-0.6-0.8-0.7s-0.6-0.3-1-0.3c-0.3,0-0.6,0-0.8,0.1c-0.2,0.1-0.4,0.2-0.6,0.4c-0.2,0.2-0.3,0.4-0.4,0.7
				c-0.1,0.3-0.1,0.6-0.1,0.9s0,0.6,0.1,0.9s0.2,0.5,0.4,0.7c0.2,0.2,0.4,0.3,0.6,0.4c0.2,0.1,0.5,0.1,0.8,0.1c0.4,0,0.7-0.1,1-0.3
				s0.6-0.4,0.8-0.7l1.8,1.6c-0.4,0.5-0.9,1-1.6,1.2C142.4,38.5,141.7,38.6,140.9,38.6z"/>
			<path class="st4" d="M148.2,36.3h4.2v2.1h-7V30h6.8v2.1h-4V36.3z M148,33.1h3.7v2H148V33.1z"/>
			<path class="st4" d="M153.5,38.4V30h2.3l4.3,5.1H159V30h2.8v8.4h-2.3l-4.3-5.1h1.1v5.1H153.5z"/>
			<path class="st4" d="M165,38.4v-6.2h-2.5V30h7.8v2.2h-2.5v6.2H165z"/>
			<path class="st4" d="M173.8,36.3h4.2v2.1h-7V30h6.8v2.1h-4V36.3z M173.6,33.1h3.7v2h-3.7V33.1z"/>
			<path class="st4" d="M179.1,38.4V30h4c0.8,0,1.5,0.1,2,0.4s1,0.6,1.3,1.1c0.3,0.5,0.5,1,0.5,1.7c0,0.6-0.2,1.2-0.5,1.7
				c-0.3,0.5-0.8,0.8-1.3,1.1c-0.6,0.2-1.3,0.4-2,0.4h-2.5l1.3-1.2v3.3H179.1z M181.9,35.5l-1.3-1.3h2.3c0.4,0,0.7-0.1,0.9-0.3
				c0.2-0.2,0.3-0.4,0.3-0.7c0-0.3-0.1-0.5-0.3-0.7c-0.2-0.2-0.5-0.3-0.9-0.3h-2.3l1.3-1.3V35.5z M184.1,38.4l-2.1-3.1h3l2.1,3.1
				H184.1z"/>
		</g>
	</g>
</g>
</svg>
